<?xml version="1.0" encoding="utf-8" standalone="no"?>
<!DOCTYPE svg PUBLIC "-//W3C//DTD SVG 1.1//EN"
  "http://www.w3.org/Graphics/SVG/1.1/DTD/svg11.dtd">
<svg xmlns:xlink="http://www.w3.org/1999/xlink" width="1224pt" height="432pt" viewBox="0 0 1224 432" xmlns="http://www.w3.org/2000/svg" version="1.1">
 <metadata>
  <rdf:RDF xmlns:dc="http://purl.org/dc/elements/1.1/" xmlns:cc="http://creativecommons.org/ns#" xmlns:rdf="http://www.w3.org/1999/02/22-rdf-syntax-ns#">
   <cc:Work>
    <dc:type rdf:resource="http://purl.org/dc/dcmitype/StillImage"/>
    <dc:date>2023-08-10T13:07:27.174258</dc:date>
    <dc:format>image/svg+xml</dc:format>
    <dc:creator>
     <cc:Agent>
      <dc:title>Matplotlib v3.7.1, https://matplotlib.org/</dc:title>
     </cc:Agent>
    </dc:creator>
   </cc:Work>
  </rdf:RDF>
 </metadata>
 <defs>
  <style type="text/css">*{stroke-linejoin: round; stroke-linecap: butt}</style>
 </defs>
 <g id="figure_1">
  <g id="patch_1">
   <path d="M 0 432 
L 1224 432 
L 1224 0 
L 0 0 
z
" style="fill: #ffffff"/>
  </g>
  <g id="axes_1">
   <g id="patch_2">
    <path d="M 153 378 
L 1101.6 378 
L 1101.6 51.84 
L 153 51.84 
z
" style="fill: #ffffff"/>
   </g>
   <g id="patch_3">
    <path d="M 160.905 235.666087 
L 224.145 235.666087 
L 224.145 172.64 
L 160.905 172.64 
L 160.905 235.666087 
z
" clip-path="url(#p71a5386152)" style="fill: #72b6a1; stroke: #545454; stroke-width: 1.5; stroke-linejoin: miter"/>
   </g>
   <g id="patch_4">
    <path d="M 239.955 240.918261 
L 303.195 240.918261 
L 303.195 177.892174 
L 239.955 177.892174 
L 239.955 240.918261 
z
" clip-path="url(#p71a5386152)" style="fill: #e99675; stroke: #545454; stroke-width: 1.5; stroke-linejoin: miter"/>
   </g>
   <g id="patch_5">
    <path d="M 319.005 277.683478 
L 382.245 277.683478 
L 382.245 193.648696 
L 319.005 193.648696 
L 319.005 277.683478 
z
" clip-path="url(#p71a5386152)" style="fill: #95a3c3; stroke: #545454; stroke-width: 1.5; stroke-linejoin: miter"/>
   </g>
   <g id="patch_6">
    <path d="M 398.055 251.422609 
L 461.295 251.422609 
L 461.295 172.64 
L 398.055 172.64 
L 398.055 251.422609 
z
" clip-path="url(#p71a5386152)" style="fill: #db96c0; stroke: #545454; stroke-width: 1.5; stroke-linejoin: miter"/>
   </g>
   <g id="patch_7">
    <path d="M 477.105 256.674783 
L 540.345 256.674783 
L 540.345 193.648696 
L 477.105 193.648696 
L 477.105 256.674783 
z
" clip-path="url(#p71a5386152)" style="fill: #a2c865; stroke: #545454; stroke-width: 1.5; stroke-linejoin: miter"/>
   </g>
   <g id="patch_8">
    <path d="M 556.155 261.926957 
L 619.395 261.926957 
L 619.395 219.909565 
L 556.155 219.909565 
L 556.155 261.926957 
z
" clip-path="url(#p71a5386152)" style="fill: #e5c849; stroke: #545454; stroke-width: 1.5; stroke-linejoin: miter"/>
   </g>
   <g id="patch_9">
    <path d="M 635.205 246.170435 
L 698.445 246.170435 
L 698.445 177.892174 
L 635.205 177.892174 
L 635.205 246.170435 
z
" clip-path="url(#p71a5386152)" style="fill: #dbc29e; stroke: #545454; stroke-width: 1.5; stroke-linejoin: miter"/>
   </g>
   <g id="patch_10">
    <path d="M 714.255 282.935652 
L 777.495 282.935652 
L 777.495 188.396522 
L 714.255 188.396522 
L 714.255 282.935652 
z
" clip-path="url(#p71a5386152)" style="fill: #b3b3b3; stroke: #545454; stroke-width: 1.5; stroke-linejoin: miter"/>
   </g>
   <g id="patch_11">
    <path d="M 793.305 256.674783 
L 856.545 256.674783 
L 856.545 188.396522 
L 793.305 188.396522 
L 793.305 256.674783 
z
" clip-path="url(#p71a5386152)" style="fill: #83968c; stroke: #545454; stroke-width: 1.5; stroke-linejoin: miter"/>
   </g>
   <g id="patch_12">
    <path d="M 872.355 282.935652 
L 935.595 282.935652 
L 935.595 204.153043 
L 872.355 204.153043 
L 872.355 282.935652 
z
" clip-path="url(#p71a5386152)" style="fill: #dca3ac; stroke: #545454; stroke-width: 1.5; stroke-linejoin: miter"/>
   </g>
   <g id="patch_13">
    <path d="M 951.405 251.422609 
L 1014.645 251.422609 
L 1014.645 214.657391 
L 951.405 214.657391 
L 951.405 251.422609 
z
" clip-path="url(#p71a5386152)" style="fill: #8cd996; stroke: #545454; stroke-width: 1.5; stroke-linejoin: miter"/>
   </g>
   <g id="patch_14">
    <path d="M 1030.455 288.187826 
L 1093.695 288.187826 
L 1093.695 246.170435 
L 1030.455 246.170435 
L 1030.455 288.187826 
z
" clip-path="url(#p71a5386152)" style="fill: #8cc6d9; stroke: #545454; stroke-width: 1.5; stroke-linejoin: miter"/>
   </g>
   <g id="matplotlib.axis_1">
    <g id="xtick_1">
     <g id="line2d_1">
      <defs>
       <path id="m7c3d2420b5" d="M 0 0 
L 0 3.5 
" style="stroke: #000000; stroke-width: 0.8"/>
      </defs>
      <g>
       <use xlink:href="#m7c3d2420b5" x="192.525" y="378" style="stroke: #000000; stroke-width: 0.8"/>
      </g>
     </g>
     <g id="text_1">
      <!-- Base -->
      <g transform="translate(171.826172 397.917344) scale(0.17 -0.17)">
       <defs>
        <path id="DejaVuSans-42" d="M 1259 2228 
L 1259 519 
L 2272 519 
Q 2781 519 3026 730 
Q 3272 941 3272 1375 
Q 3272 1813 3026 2020 
Q 2781 2228 2272 2228 
L 1259 2228 
z
M 1259 4147 
L 1259 2741 
L 2194 2741 
Q 2656 2741 2882 2914 
Q 3109 3088 3109 3444 
Q 3109 3797 2882 3972 
Q 2656 4147 2194 4147 
L 1259 4147 
z
M 628 4666 
L 2241 4666 
Q 2963 4666 3353 4366 
Q 3744 4066 3744 3513 
Q 3744 3084 3544 2831 
Q 3344 2578 2956 2516 
Q 3422 2416 3680 2098 
Q 3938 1781 3938 1306 
Q 3938 681 3513 340 
Q 3088 0 2303 0 
L 628 0 
L 628 4666 
z
" transform="scale(0.015625)"/>
        <path id="DejaVuSans-61" d="M 2194 1759 
Q 1497 1759 1228 1600 
Q 959 1441 959 1056 
Q 959 750 1161 570 
Q 1363 391 1709 391 
Q 2188 391 2477 730 
Q 2766 1069 2766 1631 
L 2766 1759 
L 2194 1759 
z
M 3341 1997 
L 3341 0 
L 2766 0 
L 2766 531 
Q 2569 213 2275 61 
Q 1981 -91 1556 -91 
Q 1019 -91 701 211 
Q 384 513 384 1019 
Q 384 1609 779 1909 
Q 1175 2209 1959 2209 
L 2766 2209 
L 2766 2266 
Q 2766 2663 2505 2880 
Q 2244 3097 1772 3097 
Q 1472 3097 1187 3025 
Q 903 2953 641 2809 
L 641 3341 
Q 956 3463 1253 3523 
Q 1550 3584 1831 3584 
Q 2591 3584 2966 3190 
Q 3341 2797 3341 1997 
z
" transform="scale(0.015625)"/>
        <path id="DejaVuSans-73" d="M 2834 3397 
L 2834 2853 
Q 2591 2978 2328 3040 
Q 2066 3103 1784 3103 
Q 1356 3103 1142 2972 
Q 928 2841 928 2578 
Q 928 2378 1081 2264 
Q 1234 2150 1697 2047 
L 1894 2003 
Q 2506 1872 2764 1633 
Q 3022 1394 3022 966 
Q 3022 478 2636 193 
Q 2250 -91 1575 -91 
Q 1294 -91 989 -36 
Q 684 19 347 128 
L 347 722 
Q 666 556 975 473 
Q 1284 391 1588 391 
Q 1994 391 2212 530 
Q 2431 669 2431 922 
Q 2431 1156 2273 1281 
Q 2116 1406 1581 1522 
L 1381 1569 
Q 847 1681 609 1914 
Q 372 2147 372 2553 
Q 372 3047 722 3315 
Q 1072 3584 1716 3584 
Q 2034 3584 2315 3537 
Q 2597 3491 2834 3397 
z
" transform="scale(0.015625)"/>
        <path id="DejaVuSans-65" d="M 3597 1894 
L 3597 1613 
L 953 1613 
Q 991 1019 1311 708 
Q 1631 397 2203 397 
Q 2534 397 2845 478 
Q 3156 559 3463 722 
L 3463 178 
Q 3153 47 2828 -22 
Q 2503 -91 2169 -91 
Q 1331 -91 842 396 
Q 353 884 353 1716 
Q 353 2575 817 3079 
Q 1281 3584 2069 3584 
Q 2775 3584 3186 3129 
Q 3597 2675 3597 1894 
z
M 3022 2063 
Q 3016 2534 2758 2815 
Q 2500 3097 2075 3097 
Q 1594 3097 1305 2825 
Q 1016 2553 972 2059 
L 3022 2063 
z
" transform="scale(0.015625)"/>
       </defs>
       <use xlink:href="#DejaVuSans-42"/>
       <use xlink:href="#DejaVuSans-61" x="68.603516"/>
       <use xlink:href="#DejaVuSans-73" x="129.882812"/>
       <use xlink:href="#DejaVuSans-65" x="181.982422"/>
      </g>
      <!--  Case -->
      <g transform="translate(169.021172 416.953625) scale(0.17 -0.17)">
       <defs>
        <path id="DejaVuSans-20" transform="scale(0.015625)"/>
        <path id="DejaVuSans-43" d="M 4122 4306 
L 4122 3641 
Q 3803 3938 3442 4084 
Q 3081 4231 2675 4231 
Q 1875 4231 1450 3742 
Q 1025 3253 1025 2328 
Q 1025 1406 1450 917 
Q 1875 428 2675 428 
Q 3081 428 3442 575 
Q 3803 722 4122 1019 
L 4122 359 
Q 3791 134 3420 21 
Q 3050 -91 2638 -91 
Q 1578 -91 968 557 
Q 359 1206 359 2328 
Q 359 3453 968 4101 
Q 1578 4750 2638 4750 
Q 3056 4750 3426 4639 
Q 3797 4528 4122 4306 
z
" transform="scale(0.015625)"/>
       </defs>
       <use xlink:href="#DejaVuSans-20"/>
       <use xlink:href="#DejaVuSans-43" x="31.787109"/>
       <use xlink:href="#DejaVuSans-61" x="101.611328"/>
       <use xlink:href="#DejaVuSans-73" x="162.890625"/>
       <use xlink:href="#DejaVuSans-65" x="214.990234"/>
      </g>
     </g>
    </g>
    <g id="xtick_2">
     <g id="line2d_2">
      <g>
       <use xlink:href="#m7c3d2420b5" x="271.575" y="378" style="stroke: #000000; stroke-width: 0.8"/>
      </g>
     </g>
     <g id="text_2">
      <!-- Curt -->
      <g transform="translate(253.426172 397.917344) scale(0.17 -0.17)">
       <defs>
        <path id="DejaVuSans-75" d="M 544 1381 
L 544 3500 
L 1119 3500 
L 1119 1403 
Q 1119 906 1312 657 
Q 1506 409 1894 409 
Q 2359 409 2629 706 
Q 2900 1003 2900 1516 
L 2900 3500 
L 3475 3500 
L 3475 0 
L 2900 0 
L 2900 538 
Q 2691 219 2414 64 
Q 2138 -91 1772 -91 
Q 1169 -91 856 284 
Q 544 659 544 1381 
z
M 1991 3584 
L 1991 3584 
z
" transform="scale(0.015625)"/>
        <path id="DejaVuSans-72" d="M 2631 2963 
Q 2534 3019 2420 3045 
Q 2306 3072 2169 3072 
Q 1681 3072 1420 2755 
Q 1159 2438 1159 1844 
L 1159 0 
L 581 0 
L 581 3500 
L 1159 3500 
L 1159 2956 
Q 1341 3275 1631 3429 
Q 1922 3584 2338 3584 
Q 2397 3584 2469 3576 
Q 2541 3569 2628 3553 
L 2631 2963 
z
" transform="scale(0.015625)"/>
        <path id="DejaVuSans-74" d="M 1172 4494 
L 1172 3500 
L 2356 3500 
L 2356 3053 
L 1172 3053 
L 1172 1153 
Q 1172 725 1289 603 
Q 1406 481 1766 481 
L 2356 481 
L 2356 0 
L 1766 0 
Q 1100 0 847 248 
Q 594 497 594 1153 
L 594 3053 
L 172 3053 
L 172 3500 
L 594 3500 
L 594 4494 
L 1172 4494 
z
" transform="scale(0.015625)"/>
       </defs>
       <use xlink:href="#DejaVuSans-43"/>
       <use xlink:href="#DejaVuSans-75" x="69.824219"/>
       <use xlink:href="#DejaVuSans-72" x="133.203125"/>
       <use xlink:href="#DejaVuSans-74" x="174.316406"/>
      </g>
     </g>
    </g>
    <g id="xtick_3">
     <g id="line2d_3">
      <g>
       <use xlink:href="#m7c3d2420b5" x="350.625" y="378" style="stroke: #000000; stroke-width: 0.8"/>
      </g>
     </g>
     <g id="text_3">
      <!-- AS -->
      <g transform="translate(339.414297 397.917344) scale(0.17 -0.17)">
       <defs>
        <path id="DejaVuSans-41" d="M 2188 4044 
L 1331 1722 
L 3047 1722 
L 2188 4044 
z
M 1831 4666 
L 2547 4666 
L 4325 0 
L 3669 0 
L 3244 1197 
L 1141 1197 
L 716 0 
L 50 0 
L 1831 4666 
z
" transform="scale(0.015625)"/>
        <path id="DejaVuSans-53" d="M 3425 4513 
L 3425 3897 
Q 3066 4069 2747 4153 
Q 2428 4238 2131 4238 
Q 1616 4238 1336 4038 
Q 1056 3838 1056 3469 
Q 1056 3159 1242 3001 
Q 1428 2844 1947 2747 
L 2328 2669 
Q 3034 2534 3370 2195 
Q 3706 1856 3706 1288 
Q 3706 609 3251 259 
Q 2797 -91 1919 -91 
Q 1588 -91 1214 -16 
Q 841 59 441 206 
L 441 856 
Q 825 641 1194 531 
Q 1563 422 1919 422 
Q 2459 422 2753 634 
Q 3047 847 3047 1241 
Q 3047 1584 2836 1778 
Q 2625 1972 2144 2069 
L 1759 2144 
Q 1053 2284 737 2584 
Q 422 2884 422 3419 
Q 422 4038 858 4394 
Q 1294 4750 2059 4750 
Q 2388 4750 2728 4690 
Q 3069 4631 3425 4513 
z
" transform="scale(0.015625)"/>
       </defs>
       <use xlink:href="#DejaVuSans-41"/>
       <use xlink:href="#DejaVuSans-53" x="68.408203"/>
      </g>
     </g>
    </g>
    <g id="xtick_4">
     <g id="line2d_4">
      <g>
       <use xlink:href="#m7c3d2420b5" x="429.675" y="378" style="stroke: #000000; stroke-width: 0.8"/>
      </g>
     </g>
     <g id="text_4">
      <!-- HS -->
      <g transform="translate(417.886563 397.917344) scale(0.17 -0.17)">
       <defs>
        <path id="DejaVuSans-48" d="M 628 4666 
L 1259 4666 
L 1259 2753 
L 3553 2753 
L 3553 4666 
L 4184 4666 
L 4184 0 
L 3553 0 
L 3553 2222 
L 1259 2222 
L 1259 0 
L 628 0 
L 628 4666 
z
" transform="scale(0.015625)"/>
       </defs>
       <use xlink:href="#DejaVuSans-48"/>
       <use xlink:href="#DejaVuSans-53" x="75.195312"/>
      </g>
     </g>
    </g>
    <g id="xtick_5">
     <g id="line2d_5">
      <g>
       <use xlink:href="#m7c3d2420b5" x="508.725" y="378" style="stroke: #000000; stroke-width: 0.8"/>
      </g>
     </g>
     <g id="text_5">
      <!-- EBS -->
      <g transform="translate(492.274844 397.917344) scale(0.17 -0.17)">
       <defs>
        <path id="DejaVuSans-45" d="M 628 4666 
L 3578 4666 
L 3578 4134 
L 1259 4134 
L 1259 2753 
L 3481 2753 
L 3481 2222 
L 1259 2222 
L 1259 531 
L 3634 531 
L 3634 0 
L 628 0 
L 628 4666 
z
" transform="scale(0.015625)"/>
       </defs>
       <use xlink:href="#DejaVuSans-45"/>
       <use xlink:href="#DejaVuSans-42" x="63.183594"/>
       <use xlink:href="#DejaVuSans-53" x="130.037109"/>
      </g>
     </g>
    </g>
    <g id="xtick_6">
     <g id="line2d_6">
      <g>
       <use xlink:href="#m7c3d2420b5" x="587.775" y="378" style="stroke: #000000; stroke-width: 0.8"/>
      </g>
     </g>
     <g id="text_6">
      <!-- EBE -->
      <g transform="translate(571.201328 397.917344) scale(0.17 -0.17)">
       <use xlink:href="#DejaVuSans-45"/>
       <use xlink:href="#DejaVuSans-42" x="63.183594"/>
       <use xlink:href="#DejaVuSans-45" x="131.787109"/>
      </g>
     </g>
    </g>
    <g id="xtick_7">
     <g id="line2d_7">
      <g>
       <use xlink:href="#m7c3d2420b5" x="666.825" y="378" style="stroke: #000000; stroke-width: 0.8"/>
      </g>
     </g>
     <g id="text_7">
      <!-- Vent -->
      <g transform="translate(647.719922 397.917344) scale(0.17 -0.17)">
       <defs>
        <path id="DejaVuSans-56" d="M 1831 0 
L 50 4666 
L 709 4666 
L 2188 738 
L 3669 4666 
L 4325 4666 
L 2547 0 
L 1831 0 
z
" transform="scale(0.015625)"/>
        <path id="DejaVuSans-6e" d="M 3513 2113 
L 3513 0 
L 2938 0 
L 2938 2094 
Q 2938 2591 2744 2837 
Q 2550 3084 2163 3084 
Q 1697 3084 1428 2787 
Q 1159 2491 1159 1978 
L 1159 0 
L 581 0 
L 581 3500 
L 1159 3500 
L 1159 2956 
Q 1366 3272 1645 3428 
Q 1925 3584 2291 3584 
Q 2894 3584 3203 3211 
Q 3513 2838 3513 2113 
z
" transform="scale(0.015625)"/>
       </defs>
       <use xlink:href="#DejaVuSans-56"/>
       <use xlink:href="#DejaVuSans-65" x="60.658203"/>
       <use xlink:href="#DejaVuSans-6e" x="122.181641"/>
       <use xlink:href="#DejaVuSans-74" x="185.560547"/>
      </g>
     </g>
    </g>
    <g id="xtick_8">
     <g id="line2d_8">
      <g>
       <use xlink:href="#m7c3d2420b5" x="745.875" y="378" style="stroke: #000000; stroke-width: 0.8"/>
      </g>
     </g>
     <g id="text_8">
      <!-- HS + AS -->
      <g transform="translate(710.350313 397.917344) scale(0.17 -0.17)">
       <defs>
        <path id="DejaVuSans-2b" d="M 2944 4013 
L 2944 2272 
L 4684 2272 
L 4684 1741 
L 2944 1741 
L 2944 0 
L 2419 0 
L 2419 1741 
L 678 1741 
L 678 2272 
L 2419 2272 
L 2419 4013 
L 2944 4013 
z
" transform="scale(0.015625)"/>
       </defs>
       <use xlink:href="#DejaVuSans-48"/>
       <use xlink:href="#DejaVuSans-53" x="75.195312"/>
       <use xlink:href="#DejaVuSans-20" x="138.671875"/>
       <use xlink:href="#DejaVuSans-2b" x="170.458984"/>
       <use xlink:href="#DejaVuSans-20" x="254.248047"/>
       <use xlink:href="#DejaVuSans-41" x="286.035156"/>
       <use xlink:href="#DejaVuSans-53" x="354.443359"/>
      </g>
     </g>
    </g>
    <g id="xtick_9">
     <g id="line2d_9">
      <g>
       <use xlink:href="#m7c3d2420b5" x="824.925" y="378" style="stroke: #000000; stroke-width: 0.8"/>
      </g>
     </g>
     <g id="text_9">
      <!-- Curt + -->
      <g transform="translate(796.952031 397.917344) scale(0.17 -0.17)">
       <use xlink:href="#DejaVuSans-43"/>
       <use xlink:href="#DejaVuSans-75" x="69.824219"/>
       <use xlink:href="#DejaVuSans-72" x="133.203125"/>
       <use xlink:href="#DejaVuSans-74" x="174.316406"/>
       <use xlink:href="#DejaVuSans-20" x="213.525391"/>
       <use xlink:href="#DejaVuSans-2b" x="245.3125"/>
      </g>
      <!-- Vent -->
      <g transform="translate(805.819922 416.953625) scale(0.17 -0.17)">
       <use xlink:href="#DejaVuSans-56"/>
       <use xlink:href="#DejaVuSans-65" x="60.658203"/>
       <use xlink:href="#DejaVuSans-6e" x="122.181641"/>
       <use xlink:href="#DejaVuSans-74" x="185.560547"/>
      </g>
     </g>
    </g>
    <g id="xtick_10">
     <g id="line2d_10">
      <g>
       <use xlink:href="#m7c3d2420b5" x="903.975" y="378" style="stroke: #000000; stroke-width: 0.8"/>
      </g>
     </g>
     <g id="text_10">
      <!-- AS + -->
      <g transform="translate(882.940156 397.917344) scale(0.17 -0.17)">
       <use xlink:href="#DejaVuSans-41"/>
       <use xlink:href="#DejaVuSans-53" x="68.408203"/>
       <use xlink:href="#DejaVuSans-20" x="131.884766"/>
       <use xlink:href="#DejaVuSans-2b" x="163.671875"/>
      </g>
      <!-- Vent -->
      <g transform="translate(884.869922 416.953625) scale(0.17 -0.17)">
       <use xlink:href="#DejaVuSans-56"/>
       <use xlink:href="#DejaVuSans-65" x="60.658203"/>
       <use xlink:href="#DejaVuSans-6e" x="122.181641"/>
       <use xlink:href="#DejaVuSans-74" x="185.560547"/>
      </g>
     </g>
    </g>
    <g id="xtick_11">
     <g id="line2d_11">
      <g>
       <use xlink:href="#m7c3d2420b5" x="983.025" y="378" style="stroke: #000000; stroke-width: 0.8"/>
      </g>
     </g>
     <g id="text_11">
      <!-- EBE + -->
      <g transform="translate(956.627188 397.917344) scale(0.17 -0.17)">
       <use xlink:href="#DejaVuSans-45"/>
       <use xlink:href="#DejaVuSans-42" x="63.183594"/>
       <use xlink:href="#DejaVuSans-45" x="131.787109"/>
       <use xlink:href="#DejaVuSans-20" x="194.970703"/>
       <use xlink:href="#DejaVuSans-2b" x="226.757812"/>
      </g>
      <!-- Vent -->
      <g transform="translate(963.919922 416.953625) scale(0.17 -0.17)">
       <use xlink:href="#DejaVuSans-56"/>
       <use xlink:href="#DejaVuSans-65" x="60.658203"/>
       <use xlink:href="#DejaVuSans-6e" x="122.181641"/>
       <use xlink:href="#DejaVuSans-74" x="185.560547"/>
      </g>
     </g>
    </g>
    <g id="xtick_12">
     <g id="line2d_12">
      <g>
       <use xlink:href="#m7c3d2420b5" x="1062.075" y="378" style="stroke: #000000; stroke-width: 0.8"/>
      </g>
     </g>
     <g id="text_12">
      <!-- AS + EBE -->
      <g transform="translate(1021.765078 397.917344) scale(0.17 -0.17)">
       <use xlink:href="#DejaVuSans-41"/>
       <use xlink:href="#DejaVuSans-53" x="68.408203"/>
       <use xlink:href="#DejaVuSans-20" x="131.884766"/>
       <use xlink:href="#DejaVuSans-2b" x="163.671875"/>
       <use xlink:href="#DejaVuSans-20" x="247.460938"/>
       <use xlink:href="#DejaVuSans-45" x="279.248047"/>
       <use xlink:href="#DejaVuSans-42" x="342.431641"/>
       <use xlink:href="#DejaVuSans-45" x="411.035156"/>
      </g>
      <!-- + Vent -->
      <g transform="translate(1033.145781 416.953625) scale(0.17 -0.17)">
       <use xlink:href="#DejaVuSans-2b"/>
       <use xlink:href="#DejaVuSans-20" x="83.789062"/>
       <use xlink:href="#DejaVuSans-56" x="115.576172"/>
       <use xlink:href="#DejaVuSans-65" x="176.234375"/>
       <use xlink:href="#DejaVuSans-6e" x="237.757812"/>
       <use xlink:href="#DejaVuSans-74" x="301.136719"/>
      </g>
     </g>
    </g>
   </g>
   <g id="matplotlib.axis_2">
    <g id="ytick_1">
     <g id="line2d_13">
      <defs>
       <path id="mb585a5d07e" d="M 0 0 
L -3.5 0 
" style="stroke: #000000; stroke-width: 0.8"/>
      </defs>
      <g>
       <use xlink:href="#mb585a5d07e" x="153" y="366.970435" style="stroke: #000000; stroke-width: 0.8"/>
      </g>
     </g>
     <g id="text_13">
      <!-- 0 -->
      <g transform="translate(135.18375 373.429107) scale(0.17 -0.17)">
       <defs>
        <path id="DejaVuSans-30" d="M 2034 4250 
Q 1547 4250 1301 3770 
Q 1056 3291 1056 2328 
Q 1056 1369 1301 889 
Q 1547 409 2034 409 
Q 2525 409 2770 889 
Q 3016 1369 3016 2328 
Q 3016 3291 2770 3770 
Q 2525 4250 2034 4250 
z
M 2034 4750 
Q 2819 4750 3233 4129 
Q 3647 3509 3647 2328 
Q 3647 1150 3233 529 
Q 2819 -91 2034 -91 
Q 1250 -91 836 529 
Q 422 1150 422 2328 
Q 422 3509 836 4129 
Q 1250 4750 2034 4750 
z
" transform="scale(0.015625)"/>
       </defs>
       <use xlink:href="#DejaVuSans-30"/>
      </g>
     </g>
    </g>
    <g id="ytick_2">
     <g id="line2d_14">
      <g>
       <use xlink:href="#mb585a5d07e" x="153" y="314.448696" style="stroke: #000000; stroke-width: 0.8"/>
      </g>
     </g>
     <g id="text_14">
      <!-- 10 -->
      <g transform="translate(124.3675 320.907368) scale(0.17 -0.17)">
       <defs>
        <path id="DejaVuSans-31" d="M 794 531 
L 1825 531 
L 1825 4091 
L 703 3866 
L 703 4441 
L 1819 4666 
L 2450 4666 
L 2450 531 
L 3481 531 
L 3481 0 
L 794 0 
L 794 531 
z
" transform="scale(0.015625)"/>
       </defs>
       <use xlink:href="#DejaVuSans-31"/>
       <use xlink:href="#DejaVuSans-30" x="63.623047"/>
      </g>
     </g>
    </g>
    <g id="ytick_3">
     <g id="line2d_15">
      <g>
       <use xlink:href="#mb585a5d07e" x="153" y="261.926957" style="stroke: #000000; stroke-width: 0.8"/>
      </g>
     </g>
     <g id="text_15">
      <!-- 20 -->
      <g transform="translate(124.3675 268.385628) scale(0.17 -0.17)">
       <defs>
        <path id="DejaVuSans-32" d="M 1228 531 
L 3431 531 
L 3431 0 
L 469 0 
L 469 531 
Q 828 903 1448 1529 
Q 2069 2156 2228 2338 
Q 2531 2678 2651 2914 
Q 2772 3150 2772 3378 
Q 2772 3750 2511 3984 
Q 2250 4219 1831 4219 
Q 1534 4219 1204 4116 
Q 875 4013 500 3803 
L 500 4441 
Q 881 4594 1212 4672 
Q 1544 4750 1819 4750 
Q 2544 4750 2975 4387 
Q 3406 4025 3406 3419 
Q 3406 3131 3298 2873 
Q 3191 2616 2906 2266 
Q 2828 2175 2409 1742 
Q 1991 1309 1228 531 
z
" transform="scale(0.015625)"/>
       </defs>
       <use xlink:href="#DejaVuSans-32"/>
       <use xlink:href="#DejaVuSans-30" x="63.623047"/>
      </g>
     </g>
    </g>
    <g id="ytick_4">
     <g id="line2d_16">
      <g>
       <use xlink:href="#mb585a5d07e" x="153" y="209.405217" style="stroke: #000000; stroke-width: 0.8"/>
      </g>
     </g>
     <g id="text_16">
      <!-- 30 -->
      <g transform="translate(124.3675 215.863889) scale(0.17 -0.17)">
       <defs>
        <path id="DejaVuSans-33" d="M 2597 2516 
Q 3050 2419 3304 2112 
Q 3559 1806 3559 1356 
Q 3559 666 3084 287 
Q 2609 -91 1734 -91 
Q 1441 -91 1130 -33 
Q 819 25 488 141 
L 488 750 
Q 750 597 1062 519 
Q 1375 441 1716 441 
Q 2309 441 2620 675 
Q 2931 909 2931 1356 
Q 2931 1769 2642 2001 
Q 2353 2234 1838 2234 
L 1294 2234 
L 1294 2753 
L 1863 2753 
Q 2328 2753 2575 2939 
Q 2822 3125 2822 3475 
Q 2822 3834 2567 4026 
Q 2313 4219 1838 4219 
Q 1578 4219 1281 4162 
Q 984 4106 628 3988 
L 628 4550 
Q 988 4650 1302 4700 
Q 1616 4750 1894 4750 
Q 2613 4750 3031 4423 
Q 3450 4097 3450 3541 
Q 3450 3153 3228 2886 
Q 3006 2619 2597 2516 
z
" transform="scale(0.015625)"/>
       </defs>
       <use xlink:href="#DejaVuSans-33"/>
       <use xlink:href="#DejaVuSans-30" x="63.623047"/>
      </g>
     </g>
    </g>
    <g id="ytick_5">
     <g id="line2d_17">
      <g>
       <use xlink:href="#mb585a5d07e" x="153" y="156.883478" style="stroke: #000000; stroke-width: 0.8"/>
      </g>
     </g>
     <g id="text_17">
      <!-- 40 -->
      <g transform="translate(124.3675 163.34215) scale(0.17 -0.17)">
       <defs>
        <path id="DejaVuSans-34" d="M 2419 4116 
L 825 1625 
L 2419 1625 
L 2419 4116 
z
M 2253 4666 
L 3047 4666 
L 3047 1625 
L 3713 1625 
L 3713 1100 
L 3047 1100 
L 3047 0 
L 2419 0 
L 2419 1100 
L 313 1100 
L 313 1709 
L 2253 4666 
z
" transform="scale(0.015625)"/>
       </defs>
       <use xlink:href="#DejaVuSans-34"/>
       <use xlink:href="#DejaVuSans-30" x="63.623047"/>
      </g>
     </g>
    </g>
    <g id="ytick_6">
     <g id="line2d_18">
      <g>
       <use xlink:href="#mb585a5d07e" x="153" y="104.361739" style="stroke: #000000; stroke-width: 0.8"/>
      </g>
     </g>
     <g id="text_18">
      <!-- 50 -->
      <g transform="translate(124.3675 110.820411) scale(0.17 -0.17)">
       <defs>
        <path id="DejaVuSans-35" d="M 691 4666 
L 3169 4666 
L 3169 4134 
L 1269 4134 
L 1269 2991 
Q 1406 3038 1543 3061 
Q 1681 3084 1819 3084 
Q 2600 3084 3056 2656 
Q 3513 2228 3513 1497 
Q 3513 744 3044 326 
Q 2575 -91 1722 -91 
Q 1428 -91 1123 -41 
Q 819 9 494 109 
L 494 744 
Q 775 591 1075 516 
Q 1375 441 1709 441 
Q 2250 441 2565 725 
Q 2881 1009 2881 1497 
Q 2881 1984 2565 2268 
Q 2250 2553 1709 2553 
Q 1456 2553 1204 2497 
Q 953 2441 691 2322 
L 691 4666 
z
" transform="scale(0.015625)"/>
       </defs>
       <use xlink:href="#DejaVuSans-35"/>
       <use xlink:href="#DejaVuSans-30" x="63.623047"/>
      </g>
     </g>
    </g>
    <g id="ytick_7">
     <g id="line2d_19">
      <g>
       <use xlink:href="#mb585a5d07e" x="153" y="51.84" style="stroke: #000000; stroke-width: 0.8"/>
      </g>
     </g>
     <g id="text_19">
      <!-- 60 -->
      <g transform="translate(124.3675 58.298672) scale(0.17 -0.17)">
       <defs>
        <path id="DejaVuSans-36" d="M 2113 2584 
Q 1688 2584 1439 2293 
Q 1191 2003 1191 1497 
Q 1191 994 1439 701 
Q 1688 409 2113 409 
Q 2538 409 2786 701 
Q 3034 994 3034 1497 
Q 3034 2003 2786 2293 
Q 2538 2584 2113 2584 
z
M 3366 4563 
L 3366 3988 
Q 3128 4100 2886 4159 
Q 2644 4219 2406 4219 
Q 1781 4219 1451 3797 
Q 1122 3375 1075 2522 
Q 1259 2794 1537 2939 
Q 1816 3084 2150 3084 
Q 2853 3084 3261 2657 
Q 3669 2231 3669 1497 
Q 3669 778 3244 343 
Q 2819 -91 2113 -91 
Q 1303 -91 875 529 
Q 447 1150 447 2328 
Q 447 3434 972 4092 
Q 1497 4750 2381 4750 
Q 2619 4750 2861 4703 
Q 3103 4656 3366 4563 
z
" transform="scale(0.015625)"/>
       </defs>
       <use xlink:href="#DejaVuSans-36"/>
       <use xlink:href="#DejaVuSans-30" x="63.623047"/>
      </g>
     </g>
    </g>
    <g id="text_20">
     <!-- Total of newly infected HCWs -->
     <g transform="translate(116.579062 331.955156) rotate(-90) scale(0.18 -0.18)">
      <defs>
       <path id="ArialMT-54" d="M 1659 0 
L 1659 4041 
L 150 4041 
L 150 4581 
L 3781 4581 
L 3781 4041 
L 2266 4041 
L 2266 0 
L 1659 0 
z
" transform="scale(0.015625)"/>
       <path id="ArialMT-6f" d="M 213 1659 
Q 213 2581 725 3025 
Q 1153 3394 1769 3394 
Q 2453 3394 2887 2945 
Q 3322 2497 3322 1706 
Q 3322 1066 3130 698 
Q 2938 331 2570 128 
Q 2203 -75 1769 -75 
Q 1072 -75 642 372 
Q 213 819 213 1659 
z
M 791 1659 
Q 791 1022 1069 705 
Q 1347 388 1769 388 
Q 2188 388 2466 706 
Q 2744 1025 2744 1678 
Q 2744 2294 2464 2611 
Q 2184 2928 1769 2928 
Q 1347 2928 1069 2612 
Q 791 2297 791 1659 
z
" transform="scale(0.015625)"/>
       <path id="ArialMT-74" d="M 1650 503 
L 1731 6 
Q 1494 -44 1306 -44 
Q 1000 -44 831 53 
Q 663 150 594 308 
Q 525 466 525 972 
L 525 2881 
L 113 2881 
L 113 3319 
L 525 3319 
L 525 4141 
L 1084 4478 
L 1084 3319 
L 1650 3319 
L 1650 2881 
L 1084 2881 
L 1084 941 
Q 1084 700 1114 631 
Q 1144 563 1211 522 
Q 1278 481 1403 481 
Q 1497 481 1650 503 
z
" transform="scale(0.015625)"/>
       <path id="ArialMT-61" d="M 2588 409 
Q 2275 144 1986 34 
Q 1697 -75 1366 -75 
Q 819 -75 525 192 
Q 231 459 231 875 
Q 231 1119 342 1320 
Q 453 1522 633 1644 
Q 813 1766 1038 1828 
Q 1203 1872 1538 1913 
Q 2219 1994 2541 2106 
Q 2544 2222 2544 2253 
Q 2544 2597 2384 2738 
Q 2169 2928 1744 2928 
Q 1347 2928 1158 2789 
Q 969 2650 878 2297 
L 328 2372 
Q 403 2725 575 2942 
Q 747 3159 1072 3276 
Q 1397 3394 1825 3394 
Q 2250 3394 2515 3294 
Q 2781 3194 2906 3042 
Q 3031 2891 3081 2659 
Q 3109 2516 3109 2141 
L 3109 1391 
Q 3109 606 3145 398 
Q 3181 191 3288 0 
L 2700 0 
Q 2613 175 2588 409 
z
M 2541 1666 
Q 2234 1541 1622 1453 
Q 1275 1403 1131 1340 
Q 988 1278 909 1158 
Q 831 1038 831 891 
Q 831 666 1001 516 
Q 1172 366 1500 366 
Q 1825 366 2078 508 
Q 2331 650 2450 897 
Q 2541 1088 2541 1459 
L 2541 1666 
z
" transform="scale(0.015625)"/>
       <path id="ArialMT-6c" d="M 409 0 
L 409 4581 
L 972 4581 
L 972 0 
L 409 0 
z
" transform="scale(0.015625)"/>
       <path id="ArialMT-20" transform="scale(0.015625)"/>
       <path id="ArialMT-66" d="M 556 0 
L 556 2881 
L 59 2881 
L 59 3319 
L 556 3319 
L 556 3672 
Q 556 4006 616 4169 
Q 697 4388 901 4523 
Q 1106 4659 1475 4659 
Q 1713 4659 2000 4603 
L 1916 4113 
Q 1741 4144 1584 4144 
Q 1328 4144 1222 4034 
Q 1116 3925 1116 3625 
L 1116 3319 
L 1763 3319 
L 1763 2881 
L 1116 2881 
L 1116 0 
L 556 0 
z
" transform="scale(0.015625)"/>
       <path id="ArialMT-6e" d="M 422 0 
L 422 3319 
L 928 3319 
L 928 2847 
Q 1294 3394 1984 3394 
Q 2284 3394 2536 3286 
Q 2788 3178 2913 3003 
Q 3038 2828 3088 2588 
Q 3119 2431 3119 2041 
L 3119 0 
L 2556 0 
L 2556 2019 
Q 2556 2363 2490 2533 
Q 2425 2703 2258 2804 
Q 2091 2906 1866 2906 
Q 1506 2906 1245 2678 
Q 984 2450 984 1813 
L 984 0 
L 422 0 
z
" transform="scale(0.015625)"/>
       <path id="ArialMT-65" d="M 2694 1069 
L 3275 997 
Q 3138 488 2766 206 
Q 2394 -75 1816 -75 
Q 1088 -75 661 373 
Q 234 822 234 1631 
Q 234 2469 665 2931 
Q 1097 3394 1784 3394 
Q 2450 3394 2872 2941 
Q 3294 2488 3294 1666 
Q 3294 1616 3291 1516 
L 816 1516 
Q 847 969 1125 678 
Q 1403 388 1819 388 
Q 2128 388 2347 550 
Q 2566 713 2694 1069 
z
M 847 1978 
L 2700 1978 
Q 2663 2397 2488 2606 
Q 2219 2931 1791 2931 
Q 1403 2931 1139 2672 
Q 875 2413 847 1978 
z
" transform="scale(0.015625)"/>
       <path id="ArialMT-77" d="M 1034 0 
L 19 3319 
L 600 3319 
L 1128 1403 
L 1325 691 
Q 1338 744 1497 1375 
L 2025 3319 
L 2603 3319 
L 3100 1394 
L 3266 759 
L 3456 1400 
L 4025 3319 
L 4572 3319 
L 3534 0 
L 2950 0 
L 2422 1988 
L 2294 2553 
L 1622 0 
L 1034 0 
z
" transform="scale(0.015625)"/>
       <path id="ArialMT-79" d="M 397 -1278 
L 334 -750 
Q 519 -800 656 -800 
Q 844 -800 956 -737 
Q 1069 -675 1141 -563 
Q 1194 -478 1313 -144 
Q 1328 -97 1363 -6 
L 103 3319 
L 709 3319 
L 1400 1397 
Q 1534 1031 1641 628 
Q 1738 1016 1872 1384 
L 2581 3319 
L 3144 3319 
L 1881 -56 
Q 1678 -603 1566 -809 
Q 1416 -1088 1222 -1217 
Q 1028 -1347 759 -1347 
Q 597 -1347 397 -1278 
z
" transform="scale(0.015625)"/>
       <path id="ArialMT-69" d="M 425 3934 
L 425 4581 
L 988 4581 
L 988 3934 
L 425 3934 
z
M 425 0 
L 425 3319 
L 988 3319 
L 988 0 
L 425 0 
z
" transform="scale(0.015625)"/>
       <path id="ArialMT-63" d="M 2588 1216 
L 3141 1144 
Q 3050 572 2676 248 
Q 2303 -75 1759 -75 
Q 1078 -75 664 370 
Q 250 816 250 1647 
Q 250 2184 428 2587 
Q 606 2991 970 3192 
Q 1334 3394 1763 3394 
Q 2303 3394 2647 3120 
Q 2991 2847 3088 2344 
L 2541 2259 
Q 2463 2594 2264 2762 
Q 2066 2931 1784 2931 
Q 1359 2931 1093 2626 
Q 828 2322 828 1663 
Q 828 994 1084 691 
Q 1341 388 1753 388 
Q 2084 388 2306 591 
Q 2528 794 2588 1216 
z
" transform="scale(0.015625)"/>
       <path id="ArialMT-64" d="M 2575 0 
L 2575 419 
Q 2259 -75 1647 -75 
Q 1250 -75 917 144 
Q 584 363 401 755 
Q 219 1147 219 1656 
Q 219 2153 384 2558 
Q 550 2963 881 3178 
Q 1213 3394 1622 3394 
Q 1922 3394 2156 3267 
Q 2391 3141 2538 2938 
L 2538 4581 
L 3097 4581 
L 3097 0 
L 2575 0 
z
M 797 1656 
Q 797 1019 1065 703 
Q 1334 388 1700 388 
Q 2069 388 2326 689 
Q 2584 991 2584 1609 
Q 2584 2291 2321 2609 
Q 2059 2928 1675 2928 
Q 1300 2928 1048 2622 
Q 797 2316 797 1656 
z
" transform="scale(0.015625)"/>
       <path id="ArialMT-48" d="M 513 0 
L 513 4581 
L 1119 4581 
L 1119 2700 
L 3500 2700 
L 3500 4581 
L 4106 4581 
L 4106 0 
L 3500 0 
L 3500 2159 
L 1119 2159 
L 1119 0 
L 513 0 
z
" transform="scale(0.015625)"/>
       <path id="ArialMT-43" d="M 3763 1606 
L 4369 1453 
Q 4178 706 3683 314 
Q 3188 -78 2472 -78 
Q 1731 -78 1267 223 
Q 803 525 561 1097 
Q 319 1669 319 2325 
Q 319 3041 592 3573 
Q 866 4106 1370 4382 
Q 1875 4659 2481 4659 
Q 3169 4659 3637 4309 
Q 4106 3959 4291 3325 
L 3694 3184 
Q 3534 3684 3231 3912 
Q 2928 4141 2469 4141 
Q 1941 4141 1586 3887 
Q 1231 3634 1087 3207 
Q 944 2781 944 2328 
Q 944 1744 1114 1308 
Q 1284 872 1643 656 
Q 2003 441 2422 441 
Q 2931 441 3284 734 
Q 3638 1028 3763 1606 
z
" transform="scale(0.015625)"/>
       <path id="ArialMT-57" d="M 1294 0 
L 78 4581 
L 700 4581 
L 1397 1578 
Q 1509 1106 1591 641 
Q 1766 1375 1797 1488 
L 2669 4581 
L 3400 4581 
L 4056 2263 
Q 4303 1400 4413 641 
Q 4500 1075 4641 1638 
L 5359 4581 
L 5969 4581 
L 4713 0 
L 4128 0 
L 3163 3491 
Q 3041 3928 3019 4028 
Q 2947 3713 2884 3491 
L 1913 0 
L 1294 0 
z
" transform="scale(0.015625)"/>
       <path id="ArialMT-73" d="M 197 991 
L 753 1078 
Q 800 744 1014 566 
Q 1228 388 1613 388 
Q 2000 388 2187 545 
Q 2375 703 2375 916 
Q 2375 1106 2209 1216 
Q 2094 1291 1634 1406 
Q 1016 1563 777 1677 
Q 538 1791 414 1992 
Q 291 2194 291 2438 
Q 291 2659 392 2848 
Q 494 3038 669 3163 
Q 800 3259 1026 3326 
Q 1253 3394 1513 3394 
Q 1903 3394 2198 3281 
Q 2494 3169 2634 2976 
Q 2775 2784 2828 2463 
L 2278 2388 
Q 2241 2644 2061 2787 
Q 1881 2931 1553 2931 
Q 1166 2931 1000 2803 
Q 834 2675 834 2503 
Q 834 2394 903 2306 
Q 972 2216 1119 2156 
Q 1203 2125 1616 2013 
Q 2213 1853 2448 1751 
Q 2684 1650 2818 1456 
Q 2953 1263 2953 975 
Q 2953 694 2789 445 
Q 2625 197 2315 61 
Q 2006 -75 1616 -75 
Q 969 -75 630 194 
Q 291 463 197 991 
z
" transform="scale(0.015625)"/>
      </defs>
      <use xlink:href="#ArialMT-54"/>
      <use xlink:href="#ArialMT-6f" x="49.958984"/>
      <use xlink:href="#ArialMT-74" x="105.574219"/>
      <use xlink:href="#ArialMT-61" x="133.357422"/>
      <use xlink:href="#ArialMT-6c" x="188.972656"/>
      <use xlink:href="#ArialMT-20" x="211.189453"/>
      <use xlink:href="#ArialMT-6f" x="238.972656"/>
      <use xlink:href="#ArialMT-66" x="294.587891"/>
      <use xlink:href="#ArialMT-20" x="322.371094"/>
      <use xlink:href="#ArialMT-6e" x="350.154297"/>
      <use xlink:href="#ArialMT-65" x="405.769531"/>
      <use xlink:href="#ArialMT-77" x="461.384766"/>
      <use xlink:href="#ArialMT-6c" x="533.601562"/>
      <use xlink:href="#ArialMT-79" x="555.818359"/>
      <use xlink:href="#ArialMT-20" x="605.818359"/>
      <use xlink:href="#ArialMT-69" x="633.601562"/>
      <use xlink:href="#ArialMT-6e" x="655.818359"/>
      <use xlink:href="#ArialMT-66" x="711.433594"/>
      <use xlink:href="#ArialMT-65" x="739.216797"/>
      <use xlink:href="#ArialMT-63" x="794.832031"/>
      <use xlink:href="#ArialMT-74" x="844.832031"/>
      <use xlink:href="#ArialMT-65" x="872.615234"/>
      <use xlink:href="#ArialMT-64" x="928.230469"/>
      <use xlink:href="#ArialMT-20" x="983.845703"/>
      <use xlink:href="#ArialMT-48" x="1011.628906"/>
      <use xlink:href="#ArialMT-43" x="1083.845703"/>
      <use xlink:href="#ArialMT-57" x="1156.0625"/>
      <use xlink:href="#ArialMT-73" x="1250.447266"/>
     </g>
    </g>
   </g>
   <g id="line2d_20">
    <path d="M 192.525 235.666087 
L 192.525 324.953043 
" clip-path="url(#p71a5386152)" style="fill: none; stroke: #545454; stroke-width: 1.5; stroke-linecap: square"/>
   </g>
   <g id="line2d_21">
    <path d="M 192.525 172.64 
L 192.525 146.37913 
" clip-path="url(#p71a5386152)" style="fill: none; stroke: #545454; stroke-width: 1.5; stroke-linecap: square"/>
   </g>
   <g id="line2d_22">
    <path d="M 176.715 324.953043 
L 208.335 324.953043 
" clip-path="url(#p71a5386152)" style="fill: none; stroke: #545454; stroke-width: 1.5; stroke-linecap: square"/>
   </g>
   <g id="line2d_23">
    <path d="M 176.715 146.37913 
L 208.335 146.37913 
" clip-path="url(#p71a5386152)" style="fill: none; stroke: #545454; stroke-width: 1.5; stroke-linecap: square"/>
   </g>
   <g id="line2d_24">
    <defs>
     <path id="mdf83c36edf" d="M 0 3.535534 
L 2.12132 0 
L 0 -3.535534 
L -2.12132 0 
z
" style="stroke: #545454; stroke-linejoin: miter"/>
    </defs>
    <g clip-path="url(#p71a5386152)">
     <use xlink:href="#mdf83c36edf" x="192.525" y="335.457391" style="fill: #545454; stroke: #545454; stroke-linejoin: miter"/>
    </g>
   </g>
   <g id="line2d_25">
    <path d="M 271.575 240.918261 
L 271.575 324.953043 
" clip-path="url(#p71a5386152)" style="fill: none; stroke: #545454; stroke-width: 1.5; stroke-linecap: square"/>
   </g>
   <g id="line2d_26">
    <path d="M 271.575 177.892174 
L 271.575 146.37913 
" clip-path="url(#p71a5386152)" style="fill: none; stroke: #545454; stroke-width: 1.5; stroke-linecap: square"/>
   </g>
   <g id="line2d_27">
    <path d="M 255.765 324.953043 
L 287.385 324.953043 
" clip-path="url(#p71a5386152)" style="fill: none; stroke: #545454; stroke-width: 1.5; stroke-linecap: square"/>
   </g>
   <g id="line2d_28">
    <path d="M 255.765 146.37913 
L 287.385 146.37913 
" clip-path="url(#p71a5386152)" style="fill: none; stroke: #545454; stroke-width: 1.5; stroke-linecap: square"/>
   </g>
   <g id="line2d_29"/>
   <g id="line2d_30">
    <path d="M 350.625 277.683478 
L 350.625 361.718261 
" clip-path="url(#p71a5386152)" style="fill: none; stroke: #545454; stroke-width: 1.5; stroke-linecap: square"/>
   </g>
   <g id="line2d_31">
    <path d="M 350.625 193.648696 
L 350.625 146.37913 
" clip-path="url(#p71a5386152)" style="fill: none; stroke: #545454; stroke-width: 1.5; stroke-linecap: square"/>
   </g>
   <g id="line2d_32">
    <path d="M 334.815 361.718261 
L 366.435 361.718261 
" clip-path="url(#p71a5386152)" style="fill: none; stroke: #545454; stroke-width: 1.5; stroke-linecap: square"/>
   </g>
   <g id="line2d_33">
    <path d="M 334.815 146.37913 
L 366.435 146.37913 
" clip-path="url(#p71a5386152)" style="fill: none; stroke: #545454; stroke-width: 1.5; stroke-linecap: square"/>
   </g>
   <g id="line2d_34"/>
   <g id="line2d_35">
    <path d="M 429.675 251.422609 
L 429.675 356.466087 
" clip-path="url(#p71a5386152)" style="fill: none; stroke: #545454; stroke-width: 1.5; stroke-linecap: square"/>
   </g>
   <g id="line2d_36">
    <path d="M 429.675 172.64 
L 429.675 146.37913 
" clip-path="url(#p71a5386152)" style="fill: none; stroke: #545454; stroke-width: 1.5; stroke-linecap: square"/>
   </g>
   <g id="line2d_37">
    <path d="M 413.865 356.466087 
L 445.485 356.466087 
" clip-path="url(#p71a5386152)" style="fill: none; stroke: #545454; stroke-width: 1.5; stroke-linecap: square"/>
   </g>
   <g id="line2d_38">
    <path d="M 413.865 146.37913 
L 445.485 146.37913 
" clip-path="url(#p71a5386152)" style="fill: none; stroke: #545454; stroke-width: 1.5; stroke-linecap: square"/>
   </g>
   <g id="line2d_39"/>
   <g id="line2d_40">
    <path d="M 508.725 256.674783 
L 508.725 324.953043 
" clip-path="url(#p71a5386152)" style="fill: none; stroke: #545454; stroke-width: 1.5; stroke-linecap: square"/>
   </g>
   <g id="line2d_41">
    <path d="M 508.725 193.648696 
L 508.725 156.883478 
" clip-path="url(#p71a5386152)" style="fill: none; stroke: #545454; stroke-width: 1.5; stroke-linecap: square"/>
   </g>
   <g id="line2d_42">
    <path d="M 492.915 324.953043 
L 524.535 324.953043 
" clip-path="url(#p71a5386152)" style="fill: none; stroke: #545454; stroke-width: 1.5; stroke-linecap: square"/>
   </g>
   <g id="line2d_43">
    <path d="M 492.915 156.883478 
L 524.535 156.883478 
" clip-path="url(#p71a5386152)" style="fill: none; stroke: #545454; stroke-width: 1.5; stroke-linecap: square"/>
   </g>
   <g id="line2d_44"/>
   <g id="line2d_45">
    <path d="M 587.775 261.926957 
L 587.775 324.953043 
" clip-path="url(#p71a5386152)" style="fill: none; stroke: #545454; stroke-width: 1.5; stroke-linecap: square"/>
   </g>
   <g id="line2d_46">
    <path d="M 587.775 219.909565 
L 587.775 183.144348 
" clip-path="url(#p71a5386152)" style="fill: none; stroke: #545454; stroke-width: 1.5; stroke-linecap: square"/>
   </g>
   <g id="line2d_47">
    <path d="M 571.965 324.953043 
L 603.585 324.953043 
" clip-path="url(#p71a5386152)" style="fill: none; stroke: #545454; stroke-width: 1.5; stroke-linecap: square"/>
   </g>
   <g id="line2d_48">
    <path d="M 571.965 183.144348 
L 603.585 183.144348 
" clip-path="url(#p71a5386152)" style="fill: none; stroke: #545454; stroke-width: 1.5; stroke-linecap: square"/>
   </g>
   <g id="line2d_49">
    <g clip-path="url(#p71a5386152)">
     <use xlink:href="#mdf83c36edf" x="587.775" y="330.205217" style="fill: #545454; stroke: #545454; stroke-linejoin: miter"/>
    </g>
   </g>
   <g id="line2d_50">
    <path d="M 666.825 246.170435 
L 666.825 335.457391 
" clip-path="url(#p71a5386152)" style="fill: none; stroke: #545454; stroke-width: 1.5; stroke-linecap: square"/>
   </g>
   <g id="line2d_51">
    <path d="M 666.825 177.892174 
L 666.825 146.37913 
" clip-path="url(#p71a5386152)" style="fill: none; stroke: #545454; stroke-width: 1.5; stroke-linecap: square"/>
   </g>
   <g id="line2d_52">
    <path d="M 651.015 335.457391 
L 682.635 335.457391 
" clip-path="url(#p71a5386152)" style="fill: none; stroke: #545454; stroke-width: 1.5; stroke-linecap: square"/>
   </g>
   <g id="line2d_53">
    <path d="M 651.015 146.37913 
L 682.635 146.37913 
" clip-path="url(#p71a5386152)" style="fill: none; stroke: #545454; stroke-width: 1.5; stroke-linecap: square"/>
   </g>
   <g id="line2d_54"/>
   <g id="line2d_55">
    <path d="M 745.875 282.935652 
L 745.875 356.466087 
" clip-path="url(#p71a5386152)" style="fill: none; stroke: #545454; stroke-width: 1.5; stroke-linecap: square"/>
   </g>
   <g id="line2d_56">
    <path d="M 745.875 188.396522 
L 745.875 151.631304 
" clip-path="url(#p71a5386152)" style="fill: none; stroke: #545454; stroke-width: 1.5; stroke-linecap: square"/>
   </g>
   <g id="line2d_57">
    <path d="M 730.065 356.466087 
L 761.685 356.466087 
" clip-path="url(#p71a5386152)" style="fill: none; stroke: #545454; stroke-width: 1.5; stroke-linecap: square"/>
   </g>
   <g id="line2d_58">
    <path d="M 730.065 151.631304 
L 761.685 151.631304 
" clip-path="url(#p71a5386152)" style="fill: none; stroke: #545454; stroke-width: 1.5; stroke-linecap: square"/>
   </g>
   <g id="line2d_59"/>
   <g id="line2d_60">
    <path d="M 824.925 256.674783 
L 824.925 340.709565 
" clip-path="url(#p71a5386152)" style="fill: none; stroke: #545454; stroke-width: 1.5; stroke-linecap: square"/>
   </g>
   <g id="line2d_61">
    <path d="M 824.925 188.396522 
L 824.925 151.631304 
" clip-path="url(#p71a5386152)" style="fill: none; stroke: #545454; stroke-width: 1.5; stroke-linecap: square"/>
   </g>
   <g id="line2d_62">
    <path d="M 809.115 340.709565 
L 840.735 340.709565 
" clip-path="url(#p71a5386152)" style="fill: none; stroke: #545454; stroke-width: 1.5; stroke-linecap: square"/>
   </g>
   <g id="line2d_63">
    <path d="M 809.115 151.631304 
L 840.735 151.631304 
" clip-path="url(#p71a5386152)" style="fill: none; stroke: #545454; stroke-width: 1.5; stroke-linecap: square"/>
   </g>
   <g id="line2d_64"/>
   <g id="line2d_65">
    <path d="M 903.975 282.935652 
L 903.975 356.466087 
" clip-path="url(#p71a5386152)" style="fill: none; stroke: #545454; stroke-width: 1.5; stroke-linecap: square"/>
   </g>
   <g id="line2d_66">
    <path d="M 903.975 204.153043 
L 903.975 151.631304 
" clip-path="url(#p71a5386152)" style="fill: none; stroke: #545454; stroke-width: 1.5; stroke-linecap: square"/>
   </g>
   <g id="line2d_67">
    <path d="M 888.165 356.466087 
L 919.785 356.466087 
" clip-path="url(#p71a5386152)" style="fill: none; stroke: #545454; stroke-width: 1.5; stroke-linecap: square"/>
   </g>
   <g id="line2d_68">
    <path d="M 888.165 151.631304 
L 919.785 151.631304 
" clip-path="url(#p71a5386152)" style="fill: none; stroke: #545454; stroke-width: 1.5; stroke-linecap: square"/>
   </g>
   <g id="line2d_69"/>
   <g id="line2d_70">
    <path d="M 983.025 251.422609 
L 983.025 303.944348 
" clip-path="url(#p71a5386152)" style="fill: none; stroke: #545454; stroke-width: 1.5; stroke-linecap: square"/>
   </g>
   <g id="line2d_71">
    <path d="M 983.025 214.657391 
L 983.025 183.144348 
" clip-path="url(#p71a5386152)" style="fill: none; stroke: #545454; stroke-width: 1.5; stroke-linecap: square"/>
   </g>
   <g id="line2d_72">
    <path d="M 967.215 303.944348 
L 998.835 303.944348 
" clip-path="url(#p71a5386152)" style="fill: none; stroke: #545454; stroke-width: 1.5; stroke-linecap: square"/>
   </g>
   <g id="line2d_73">
    <path d="M 967.215 183.144348 
L 998.835 183.144348 
" clip-path="url(#p71a5386152)" style="fill: none; stroke: #545454; stroke-width: 1.5; stroke-linecap: square"/>
   </g>
   <g id="line2d_74">
    <g clip-path="url(#p71a5386152)">
     <use xlink:href="#mdf83c36edf" x="983.025" y="330.205217" style="fill: #545454; stroke: #545454; stroke-linejoin: miter"/>
     <use xlink:href="#mdf83c36edf" x="983.025" y="324.953043" style="fill: #545454; stroke: #545454; stroke-linejoin: miter"/>
     <use xlink:href="#mdf83c36edf" x="983.025" y="309.196522" style="fill: #545454; stroke: #545454; stroke-linejoin: miter"/>
     <use xlink:href="#mdf83c36edf" x="983.025" y="309.196522" style="fill: #545454; stroke: #545454; stroke-linejoin: miter"/>
     <use xlink:href="#mdf83c36edf" x="983.025" y="309.196522" style="fill: #545454; stroke: #545454; stroke-linejoin: miter"/>
     <use xlink:href="#mdf83c36edf" x="983.025" y="324.953043" style="fill: #545454; stroke: #545454; stroke-linejoin: miter"/>
     <use xlink:href="#mdf83c36edf" x="983.025" y="324.953043" style="fill: #545454; stroke: #545454; stroke-linejoin: miter"/>
     <use xlink:href="#mdf83c36edf" x="983.025" y="309.196522" style="fill: #545454; stroke: #545454; stroke-linejoin: miter"/>
     <use xlink:href="#mdf83c36edf" x="983.025" y="324.953043" style="fill: #545454; stroke: #545454; stroke-linejoin: miter"/>
     <use xlink:href="#mdf83c36edf" x="983.025" y="309.196522" style="fill: #545454; stroke: #545454; stroke-linejoin: miter"/>
     <use xlink:href="#mdf83c36edf" x="983.025" y="309.196522" style="fill: #545454; stroke: #545454; stroke-linejoin: miter"/>
     <use xlink:href="#mdf83c36edf" x="983.025" y="314.448696" style="fill: #545454; stroke: #545454; stroke-linejoin: miter"/>
     <use xlink:href="#mdf83c36edf" x="983.025" y="319.70087" style="fill: #545454; stroke: #545454; stroke-linejoin: miter"/>
     <use xlink:href="#mdf83c36edf" x="983.025" y="314.448696" style="fill: #545454; stroke: #545454; stroke-linejoin: miter"/>
     <use xlink:href="#mdf83c36edf" x="983.025" y="309.196522" style="fill: #545454; stroke: #545454; stroke-linejoin: miter"/>
     <use xlink:href="#mdf83c36edf" x="983.025" y="309.196522" style="fill: #545454; stroke: #545454; stroke-linejoin: miter"/>
     <use xlink:href="#mdf83c36edf" x="983.025" y="319.70087" style="fill: #545454; stroke: #545454; stroke-linejoin: miter"/>
     <use xlink:href="#mdf83c36edf" x="983.025" y="314.448696" style="fill: #545454; stroke: #545454; stroke-linejoin: miter"/>
     <use xlink:href="#mdf83c36edf" x="983.025" y="309.196522" style="fill: #545454; stroke: #545454; stroke-linejoin: miter"/>
    </g>
   </g>
   <g id="line2d_75">
    <path d="M 1062.075 288.187826 
L 1062.075 351.213913 
" clip-path="url(#p71a5386152)" style="fill: none; stroke: #545454; stroke-width: 1.5; stroke-linecap: square"/>
   </g>
   <g id="line2d_76">
    <path d="M 1062.075 246.170435 
L 1062.075 183.144348 
" clip-path="url(#p71a5386152)" style="fill: none; stroke: #545454; stroke-width: 1.5; stroke-linecap: square"/>
   </g>
   <g id="line2d_77">
    <path d="M 1046.265 351.213913 
L 1077.885 351.213913 
" clip-path="url(#p71a5386152)" style="fill: none; stroke: #545454; stroke-width: 1.5; stroke-linecap: square"/>
   </g>
   <g id="line2d_78">
    <path d="M 1046.265 183.144348 
L 1077.885 183.144348 
" clip-path="url(#p71a5386152)" style="fill: none; stroke: #545454; stroke-width: 1.5; stroke-linecap: square"/>
   </g>
   <g id="line2d_79">
    <g clip-path="url(#p71a5386152)">
     <use xlink:href="#mdf83c36edf" x="1062.075" y="356.466087" style="fill: #545454; stroke: #545454; stroke-linejoin: miter"/>
     <use xlink:href="#mdf83c36edf" x="1062.075" y="361.718261" style="fill: #545454; stroke: #545454; stroke-linejoin: miter"/>
     <use xlink:href="#mdf83c36edf" x="1062.075" y="356.466087" style="fill: #545454; stroke: #545454; stroke-linejoin: miter"/>
     <use xlink:href="#mdf83c36edf" x="1062.075" y="356.466087" style="fill: #545454; stroke: #545454; stroke-linejoin: miter"/>
     <use xlink:href="#mdf83c36edf" x="1062.075" y="356.466087" style="fill: #545454; stroke: #545454; stroke-linejoin: miter"/>
     <use xlink:href="#mdf83c36edf" x="1062.075" y="366.970435" style="fill: #545454; stroke: #545454; stroke-linejoin: miter"/>
     <use xlink:href="#mdf83c36edf" x="1062.075" y="356.466087" style="fill: #545454; stroke: #545454; stroke-linejoin: miter"/>
     <use xlink:href="#mdf83c36edf" x="1062.075" y="361.718261" style="fill: #545454; stroke: #545454; stroke-linejoin: miter"/>
     <use xlink:href="#mdf83c36edf" x="1062.075" y="361.718261" style="fill: #545454; stroke: #545454; stroke-linejoin: miter"/>
    </g>
   </g>
   <g id="line2d_80">
    <path d="M 160.905 198.90087 
L 224.145 198.90087 
" clip-path="url(#p71a5386152)" style="fill: none; stroke: #545454; stroke-width: 1.5; stroke-linecap: square"/>
   </g>
   <g id="line2d_81">
    <defs>
     <path id="me2b7961782" d="M -3 3 
L 3 3 
L 3 -3 
L -3 -3 
z
" style="stroke: #0000ff; stroke-linejoin: miter"/>
    </defs>
    <g clip-path="url(#p71a5386152)">
     <use xlink:href="#me2b7961782" x="192.525" y="205.912522" style="fill: #ffffff; stroke: #0000ff; stroke-linejoin: miter"/>
    </g>
   </g>
   <g id="line2d_82">
    <path d="M 239.955 209.405217 
L 303.195 209.405217 
" clip-path="url(#p71a5386152)" style="fill: none; stroke: #545454; stroke-width: 1.5; stroke-linecap: square"/>
   </g>
   <g id="line2d_83">
    <g clip-path="url(#p71a5386152)">
     <use xlink:href="#me2b7961782" x="271.575" y="210.203548" style="fill: #ffffff; stroke: #0000ff; stroke-linejoin: miter"/>
    </g>
   </g>
   <g id="line2d_84">
    <path d="M 319.005 240.918261 
L 382.245 240.918261 
" clip-path="url(#p71a5386152)" style="fill: none; stroke: #545454; stroke-width: 1.5; stroke-linecap: square"/>
   </g>
   <g id="line2d_85">
    <g clip-path="url(#p71a5386152)">
     <use xlink:href="#me2b7961782" x="350.625" y="237.289009" style="fill: #ffffff; stroke: #0000ff; stroke-linejoin: miter"/>
    </g>
   </g>
   <g id="line2d_86">
    <path d="M 398.055 209.405217 
L 461.295 209.405217 
" clip-path="url(#p71a5386152)" style="fill: none; stroke: #545454; stroke-width: 1.5; stroke-linecap: square"/>
   </g>
   <g id="line2d_87">
    <g clip-path="url(#p71a5386152)">
     <use xlink:href="#me2b7961782" x="429.675" y="214.646887" style="fill: #ffffff; stroke: #0000ff; stroke-linejoin: miter"/>
    </g>
   </g>
   <g id="line2d_88">
    <path d="M 477.105 219.909565 
L 540.345 219.909565 
" clip-path="url(#p71a5386152)" style="fill: none; stroke: #545454; stroke-width: 1.5; stroke-linecap: square"/>
   </g>
   <g id="line2d_89">
    <g clip-path="url(#p71a5386152)">
     <use xlink:href="#me2b7961782" x="508.725" y="224.037774" style="fill: #ffffff; stroke: #0000ff; stroke-linejoin: miter"/>
    </g>
   </g>
   <g id="line2d_90">
    <path d="M 556.155 240.918261 
L 619.395 240.918261 
" clip-path="url(#p71a5386152)" style="fill: none; stroke: #545454; stroke-width: 1.5; stroke-linecap: square"/>
   </g>
   <g id="line2d_91">
    <g clip-path="url(#p71a5386152)">
     <use xlink:href="#me2b7961782" x="587.775" y="241.070574" style="fill: #ffffff; stroke: #0000ff; stroke-linejoin: miter"/>
    </g>
   </g>
   <g id="line2d_92">
    <path d="M 635.205 204.153043 
L 698.445 204.153043 
" clip-path="url(#p71a5386152)" style="fill: none; stroke: #545454; stroke-width: 1.5; stroke-linecap: square"/>
   </g>
   <g id="line2d_93">
    <g clip-path="url(#p71a5386152)">
     <use xlink:href="#me2b7961782" x="666.825" y="212.651061" style="fill: #ffffff; stroke: #0000ff; stroke-linejoin: miter"/>
    </g>
   </g>
   <g id="line2d_94">
    <path d="M 714.255 225.161739 
L 777.495 225.161739 
" clip-path="url(#p71a5386152)" style="fill: none; stroke: #545454; stroke-width: 1.5; stroke-linecap: square"/>
   </g>
   <g id="line2d_95">
    <g clip-path="url(#p71a5386152)">
     <use xlink:href="#me2b7961782" x="745.875" y="233.512696" style="fill: #ffffff; stroke: #0000ff; stroke-linejoin: miter"/>
    </g>
   </g>
   <g id="line2d_96">
    <path d="M 793.305 219.909565 
L 856.545 219.909565 
" clip-path="url(#p71a5386152)" style="fill: none; stroke: #545454; stroke-width: 1.5; stroke-linecap: square"/>
   </g>
   <g id="line2d_97">
    <g clip-path="url(#p71a5386152)">
     <use xlink:href="#me2b7961782" x="824.925" y="224.3424" style="fill: #ffffff; stroke: #0000ff; stroke-linejoin: miter"/>
    </g>
   </g>
   <g id="line2d_98">
    <path d="M 872.355 256.674783 
L 935.595 256.674783 
" clip-path="url(#p71a5386152)" style="fill: none; stroke: #545454; stroke-width: 1.5; stroke-linecap: square"/>
   </g>
   <g id="line2d_99">
    <g clip-path="url(#p71a5386152)">
     <use xlink:href="#me2b7961782" x="903.975" y="248.644209" style="fill: #ffffff; stroke: #0000ff; stroke-linejoin: miter"/>
    </g>
   </g>
   <g id="line2d_100">
    <path d="M 951.405 230.413913 
L 1014.645 230.413913 
" clip-path="url(#p71a5386152)" style="fill: none; stroke: #545454; stroke-width: 1.5; stroke-linecap: square"/>
   </g>
   <g id="line2d_101">
    <g clip-path="url(#p71a5386152)">
     <use xlink:href="#me2b7961782" x="983.025" y="235.792139" style="fill: #ffffff; stroke: #0000ff; stroke-linejoin: miter"/>
    </g>
   </g>
   <g id="line2d_102">
    <path d="M 1030.455 267.17913 
L 1093.695 267.17913 
" clip-path="url(#p71a5386152)" style="fill: none; stroke: #545454; stroke-width: 1.5; stroke-linecap: square"/>
   </g>
   <g id="line2d_103">
    <g clip-path="url(#p71a5386152)">
     <use xlink:href="#me2b7961782" x="1062.075" y="267.383965" style="fill: #ffffff; stroke: #0000ff; stroke-linejoin: miter"/>
    </g>
   </g>
   <g id="patch_15">
    <path d="M 153 378 
L 153 51.84 
" style="fill: none; stroke: #000000; stroke-width: 0.8; stroke-linejoin: miter; stroke-linecap: square"/>
   </g>
   <g id="patch_16">
    <path d="M 1101.6 378 
L 1101.6 51.84 
" style="fill: none; stroke: #000000; stroke-width: 0.8; stroke-linejoin: miter; stroke-linecap: square"/>
   </g>
   <g id="patch_17">
    <path d="M 153 378 
L 1101.6 378 
" style="fill: none; stroke: #000000; stroke-width: 0.8; stroke-linejoin: miter; stroke-linecap: square"/>
   </g>
   <g id="patch_18">
    <path d="M 153 51.84 
L 1101.6 51.84 
" style="fill: none; stroke: #000000; stroke-width: 0.8; stroke-linejoin: miter; stroke-linecap: square"/>
   </g>
  </g>
 </g>
 <defs>
  <clipPath id="p71a5386152">
   <rect x="153" y="51.84" width="948.6" height="326.16"/>
  </clipPath>
 </defs>
</svg>
